<?xml version="1.0" standalone="no"?>
<!DOCTYPE svg PUBLIC "-//W3C//DTD SVG 20010904//EN"
 "http://www.w3.org/TR/2001/REC-SVG-20010904/DTD/svg10.dtd">
<svg version="1.0" xmlns="http://www.w3.org/2000/svg"
 width="1024.000000pt" height="322.000000pt" viewBox="0 0 1024.000000 322.000000"
 preserveAspectRatio="xMidYMid meet">

<g transform="translate(0.000000,322.000000) scale(0.100000,-0.100000)"
fill="#000000" stroke="none">
<path d="M5288 3063 c7 -3 16 -2 19 1 4 3 -2 6 -13 5 -11 0 -14 -3 -6 -6z"/>
<path d="M5350 3048 c111 -51 172 -75 155 -62 -26 21 -112 59 -150 67 -29 6
-29 6 -5 -5z"/>
<path d="M4838 2928 c-62 -61 -50 -53 40 25 23 20 38 37 33 37 -5 0 -38 -28
-73 -62z"/>
<path d="M5291 2824 c0 -11 3 -14 6 -6 3 7 2 16 -1 19 -3 4 -6 -2 -5 -13z"/>
<path d="M5167 2778 c-35 -48 -43 -68 -12 -33 28 32 49 65 41 65 -3 0 -16 -15
-29 -32z"/>
<path d="M5281 2774 c0 -11 3 -14 6 -6 3 7 2 16 -1 19 -3 4 -6 -2 -5 -13z"/>
<path d="M5691 2770 c14 -31 19 -36 19 -24 0 6 -7 19 -16 30 -14 18 -14 18 -3
-6z"/>
<path d="M4672 2610 c0 -14 2 -19 5 -12 2 6 2 18 0 25 -3 6 -5 1 -5 -13z"/>
<path d="M5742 2595 c0 -16 2 -22 5 -12 2 9 2 23 0 30 -3 6 -5 -1 -5 -18z"/>
<path d="M5415 2553 c-11 -15 -24 -34 -29 -42 -16 -26 21 7 45 41 26 36 11 37
-16 1z"/>
<path d="M4662 2530 c0 -19 2 -27 5 -17 2 9 2 25 0 35 -3 9 -5 1 -5 -18z"/>
<path d="M4976 2517 c-36 -48 -32 -58 4 -12 17 21 30 39 30 41 0 11 -12 1 -34
-29z"/>
<path d="M5349 2463 c-13 -16 -12 -17 4 -4 16 13 21 21 13 21 -2 0 -10 -8 -17
-17z"/>
<path d="M4672 2450 c0 -14 2 -19 5 -12 2 6 2 18 0 25 -3 6 -5 1 -5 -13z"/>
<path d="M5145 2440 c3 -5 8 -10 11 -10 2 0 4 5 4 10 0 6 -5 10 -11 10 -5 0
-7 -4 -4 -10z"/>
<path d="M5136 2384 c-4 -20 -5 -38 -3 -40 3 -3 8 11 11 32 4 20 5 38 3 40 -3
3 -8 -11 -11 -32z"/>
<path d="M5244 2318 c-37 -51 -71 -99 -77 -105 -5 -7 -7 -13 -5 -13 5 0 96
118 137 178 12 17 20 32 17 32 -2 0 -35 -42 -72 -92z"/>
<path d="M5122 2310 c0 -14 2 -19 5 -12 2 6 2 18 0 25 -3 6 -5 1 -5 -13z"/>
<path d="M4710 2311 c0 -6 4 -13 10 -16 6 -3 7 1 4 9 -7 18 -14 21 -14 7z"/>
<path d="M4726 2155 c-9 -33 -19 -68 -22 -77 -3 -10 -3 -18 -1 -18 9 0 48 121
45 138 -2 9 -12 -10 -22 -43z"/>
<path d="M5596 2161 l-40 -46 44 42 c24 23 42 44 40 46 -3 2 -23 -17 -44 -42z"/>
<path d="M4720 2020 c-8 -5 -10 -10 -5 -10 6 0 17 5 25 10 8 5 11 10 5 10 -5
0 -17 -5 -25 -10z"/>
<path d="M6125 2011 c-175 -30 -278 -74 -392 -170 -37 -31 -85 -79 -106 -106
-56 -73 -117 -198 -133 -274 -21 -99 -18 -282 6 -375 50 -196 183 -362 361
-450 137 -67 224 -87 389 -87 223 1 376 54 508 176 40 37 72 72 72 78 0 7 -52
60 -116 120 l-116 107 -50 -45 c-75 -67 -160 -105 -251 -112 -150 -11 -274 41
-355 149 -57 77 -77 143 -77 258 1 153 44 248 151 331 79 61 150 82 259 77
111 -5 181 -34 260 -109 l55 -51 67 60 c38 33 93 86 123 117 l55 57 -75 70
c-85 80 -171 126 -295 158 -89 23 -261 34 -340 21z"/>
<path d="M5328 2003 c7 -3 16 -2 19 1 4 3 -2 6 -13 5 -11 0 -14 -3 -6 -6z"/>
<path d="M382 1838 l3 -153 344 -5 344 -5 -164 -195 c-343 -406 -515 -613
-531 -638 -15 -22 -18 -49 -17 -149 l2 -123 624 0 624 0 -3 153 -3 152 -367 3
c-257 1 -368 6 -368 13 0 6 28 43 63 83 35 39 103 121 152 181 50 61 181 219
292 353 l203 242 0 120 0 120 -600 0 -601 0 3 -152z"/>
<path d="M2242 1963 c-5 -16 -39 -93 -74 -173 -36 -80 -116 -262 -178 -405
-148 -341 -170 -392 -220 -505 -47 -104 -130 -301 -130 -306 0 -2 89 -4 198
-4 l197 0 48 123 c26 67 51 128 56 136 7 11 64 14 308 16 164 1 303 0 310 -2
7 -3 17 -21 24 -41 6 -21 29 -81 51 -134 l40 -98 204 0 c112 0 204 1 204 3 0
1 -27 63 -61 137 -34 74 -108 241 -164 370 -57 129 -138 312 -180 405 -110
244 -190 424 -208 468 l-16 37 -200 0 -199 0 -10 -27z m225 -380 c3 -10 41
-108 84 -218 44 -110 79 -205 79 -212 0 -10 -40 -13 -180 -13 -145 0 -180 3
-180 14 0 7 26 78 58 157 32 79 71 177 86 217 28 73 42 87 53 55z"/>
<path d="M3410 1281 l0 -711 190 0 190 0 2 193 3 192 225 6 c209 5 231 8 303
32 210 72 327 222 343 437 15 203 -82 392 -248 480 -136 73 -138 73 -595 77
l-413 4 0 -710z m765 376 c73 -40 99 -83 103 -173 4 -65 1 -79 -22 -119 -46
-78 -80 -89 -288 -93 l-178 -4 0 205 c0 112 3 207 7 211 4 3 79 5 167 4 154
-3 163 -5 211 -31z"/>
<path d="M7407 1863 c-31 -71 -92 -211 -135 -313 -44 -102 -132 -306 -197
-455 -64 -148 -125 -290 -135 -315 -10 -25 -34 -81 -54 -124 -20 -44 -35 -80
-33 -82 1 -2 90 -4 197 -4 l194 -2 51 131 c29 72 55 134 58 137 4 4 243 6 558
4 l65 0 38 -102 c21 -57 45 -118 55 -136 l17 -33 199 0 c157 1 199 3 197 13
-2 7 -30 72 -62 143 -32 72 -84 189 -115 260 -32 72 -95 213 -140 315 -46 102
-104 232 -128 290 -41 95 -125 284 -164 368 l-15 32 -197 0 -198 0 -56 -127z
m270 -280 c6 -18 165 -422 171 -435 2 -5 -80 -8 -182 -8 -137 0 -186 3 -186
12 0 6 35 102 79 212 43 111 81 209 84 219 4 9 11 17 17 17 6 0 13 -8 17 -17z"/>
<path d="M8620 1278 l0 -713 187 2 188 2 3 196 2 195 118 0 117 0 129 -195
128 -195 204 0 204 0 -37 57 c-20 32 -85 131 -145 221 -59 90 -108 166 -108
170 0 4 20 19 44 35 56 35 138 122 165 175 33 65 51 149 51 239 0 108 -15 173
-57 255 -58 112 -147 182 -298 235 l-80 28 -407 3 -408 3 0 -713z m740 386
c70 -32 106 -75 119 -144 16 -79 0 -140 -47 -186 -53 -51 -110 -64 -284 -64
l-148 0 0 204 c0 147 3 205 12 208 6 2 77 4 157 3 125 -1 153 -4 191 -21z"/>
<path d="M4870 1237 l0 -666 191 -3 c105 -2 193 -1 195 1 2 2 4 286 4 631 l0
627 -102 6 c-74 4 -124 13 -178 32 -41 14 -83 28 -92 32 -17 5 -18 -31 -18
-660z"/>
</g>
</svg>
